<?xml version="1.0" encoding="UTF-8" standalone="no"?>
<!DOCTYPE svg PUBLIC "-//W3C//DTD SVG 1.1//EN"
 "http://www.w3.org/Graphics/SVG/1.1/DTD/svg11.dtd">
<!-- Generated by graphviz version 2.40.1 (20161225.0304)
 -->
<!-- Title: %3 Pages: 1 -->
<svg width="1628pt" height="727pt"
 viewBox="0.00 0.00 1628.45 726.96" xmlns="http://www.w3.org/2000/svg" xmlns:xlink="http://www.w3.org/1999/xlink">
<g id="graph0" class="graph" transform="scale(1 1) rotate(0) translate(4 722.9551)">
<title>%3</title>
<polygon fill="#ffffff" stroke="transparent" points="-4,4 -4,-722.9551 1624.4517,-722.9551 1624.4517,4 -4,4"/>
<!-- 7 -->
<g id="node1" class="node">
<title>7</title>
<g id="a_node1"><a xlink:title="/Users/lucassawade/anaconda3/lib/python3.7/site&#45;packages/numpy/lib/format.py">
<polygon fill="#0d1b77" stroke="#0d1b77" points="548.6634,-338.9766 390.0632,-338.9766 390.0632,-284.9844 548.6634,-284.9844 548.6634,-338.9766"/>
<text text-anchor="middle" x="469.3633" y="-326.9785" font-family="Arial" font-size="10.00" fill="#ffffff">format:290:_write_array_header</text>
<text text-anchor="middle" x="469.3633" y="-315.4795" font-family="Arial" font-size="10.00" fill="#ffffff">3.29%</text>
<text text-anchor="middle" x="469.3633" y="-303.9805" font-family="Arial" font-size="10.00" fill="#ffffff">(0.23%)</text>
<text text-anchor="middle" x="469.3633" y="-292.4814" font-family="Arial" font-size="10.00" fill="#ffffff">2001×</text>
</a>
</g>
</g>
<!-- 8 -->
<g id="node2" class="node">
<title>8</title>
<g id="a_node2"><a xlink:title="/Users/lucassawade/anaconda3/lib/python3.7/site&#45;packages/numpy/lib/format.py">
<polygon fill="#0d1976" stroke="#0d1976" points="533.097,-243.9824 405.6296,-243.9824 405.6296,-189.9902 533.097,-189.9902 533.097,-243.9824"/>
<text text-anchor="middle" x="469.3633" y="-231.9844" font-family="Arial" font-size="10.00" fill="#ffffff">format:439:_filter_header</text>
<text text-anchor="middle" x="469.3633" y="-220.4854" font-family="Arial" font-size="10.00" fill="#ffffff">2.84%</text>
<text text-anchor="middle" x="469.3633" y="-208.9863" font-family="Arial" font-size="10.00" fill="#ffffff">(0.31%)</text>
<text text-anchor="middle" x="469.3633" y="-197.4873" font-family="Arial" font-size="10.00" fill="#ffffff">2002×</text>
</a>
</g>
</g>
<!-- 7&#45;&gt;8 -->
<g id="edge1" class="edge">
<title>7&#45;&gt;8</title>
<path fill="none" stroke="#0d1976" stroke-width=".5" d="M469.3633,-284.759C469.3633,-273.2319 469.3633,-259.7435 469.3633,-247.8483"/>
<polygon fill="#0d1976" stroke="#0d1976" stroke-width=".5" points="470.5884,-247.7118 469.3633,-244.2118 468.1384,-247.7118 470.5884,-247.7118"/>
<text text-anchor="middle" x="483.5405" y="-267.9824" font-family="Arial" font-size="10.00" fill="#0d1976">2.84%</text>
<text text-anchor="middle" x="483.5405" y="-256.4834" font-family="Arial" font-size="10.00" fill="#0d1976">2001×</text>
</g>
<!-- 44 -->
<g id="node3" class="node">
<title>44</title>
<g id="a_node3"><a xlink:title="/Users/lucassawade/anaconda3/lib/python3.7/tokenize.py">
<polygon fill="#0d1575" stroke="#0d1575" points="528.6586,-148.9883 410.068,-148.9883 410.068,-94.9961 528.6586,-94.9961 528.6586,-148.9883"/>
<text text-anchor="middle" x="469.3633" y="-136.9902" font-family="Arial" font-size="10.00" fill="#ffffff">tokenize:487:_tokenize</text>
<text text-anchor="middle" x="469.3633" y="-125.4912" font-family="Arial" font-size="10.00" fill="#ffffff">1.93%</text>
<text text-anchor="middle" x="469.3633" y="-113.9922" font-family="Arial" font-size="10.00" fill="#ffffff">(0.72%)</text>
<text text-anchor="middle" x="469.3633" y="-102.4932" font-family="Arial" font-size="10.00" fill="#ffffff">40043×</text>
</a>
</g>
</g>
<!-- 8&#45;&gt;44 -->
<g id="edge2" class="edge">
<title>8&#45;&gt;44</title>
<path fill="none" stroke="#0d1575" stroke-width=".5" d="M469.3633,-189.7648C469.3633,-178.2378 469.3633,-164.7494 469.3633,-152.8542"/>
<polygon fill="#0d1575" stroke="#0d1575" stroke-width=".5" points="470.5884,-152.7176 469.3633,-149.2177 468.1384,-152.7177 470.5884,-152.7176"/>
<text text-anchor="middle" x="486.187" y="-172.9883" font-family="Arial" font-size="10.00" fill="#0d1575">1.93%</text>
<text text-anchor="middle" x="486.187" y="-161.4893" font-family="Arial" font-size="10.00" fill="#0d1575">40043×</text>
</g>
<!-- 135 -->
<g id="node8" class="node">
<title>135</title>
<g id="a_node8"><a xlink:title="/Users/lucassawade/anaconda3/lib/python3.7/tokenize.py">
<polygon fill="#0d0f74" stroke="#0d0f74" points="526.8712,-53.9941 411.8554,-53.9941 411.8554,-.002 526.8712,-.002 526.8712,-53.9941"/>
<text text-anchor="middle" x="469.3633" y="-41.9961" font-family="Arial" font-size="10.00" fill="#ffffff">tokenize:147:_compile</text>
<text text-anchor="middle" x="469.3633" y="-30.4971" font-family="Arial" font-size="10.00" fill="#ffffff">0.59%</text>
<text text-anchor="middle" x="469.3633" y="-18.998" font-family="Arial" font-size="10.00" fill="#ffffff">(0.12%)</text>
<text text-anchor="middle" x="469.3633" y="-7.499" font-family="Arial" font-size="10.00" fill="#ffffff">36038×</text>
</a>
</g>
</g>
<!-- 44&#45;&gt;135 -->
<g id="edge6" class="edge">
<title>44&#45;&gt;135</title>
<path fill="none" stroke="#0d0f74" stroke-width=".5" d="M469.3633,-94.7707C469.3633,-83.2436 469.3633,-69.7552 469.3633,-57.86"/>
<polygon fill="#0d0f74" stroke="#0d0f74" stroke-width=".5" points="470.5884,-57.7235 469.3633,-54.2235 468.1384,-57.7236 470.5884,-57.7235"/>
<text text-anchor="middle" x="486.187" y="-77.9941" font-family="Arial" font-size="10.00" fill="#0d0f74">0.59%</text>
<text text-anchor="middle" x="486.187" y="-66.4951" font-family="Arial" font-size="10.00" fill="#0d0f74">36038×</text>
</g>
<!-- 42 -->
<g id="node4" class="node">
<title>42</title>
<g id="a_node4"><a xlink:title="/Users/lucassawade/anaconda3/lib/python3.7/site&#45;packages/numpy/lib/npyio.py">
<polygon fill="#0d2f7d" stroke="#0d2f7d" points="644.1342,-528.9648 560.5923,-528.9648 560.5923,-474.9727 644.1342,-474.9727 644.1342,-528.9648"/>
<text text-anchor="middle" x="602.3633" y="-516.9668" font-family="Arial" font-size="10.00" fill="#ffffff">npyio:449:save</text>
<text text-anchor="middle" x="602.3633" y="-505.4678" font-family="Arial" font-size="10.00" fill="#ffffff">7.77%</text>
<text text-anchor="middle" x="602.3633" y="-493.9688" font-family="Arial" font-size="10.00" fill="#ffffff">(0.17%)</text>
<text text-anchor="middle" x="602.3633" y="-482.4697" font-family="Arial" font-size="10.00" fill="#ffffff">2001×</text>
</a>
</g>
</g>
<!-- 114 -->
<g id="node5" class="node">
<title>114</title>
<g id="a_node5"><a xlink:title="/Users/lucassawade/anaconda3/lib/python3.7/site&#45;packages/numpy/lib/format.py">
<polygon fill="#0d2279" stroke="#0d2279" points="520.4024,-433.9707 404.3242,-433.9707 404.3242,-379.9785 520.4024,-379.9785 520.4024,-433.9707"/>
<text text-anchor="middle" x="462.3633" y="-421.9727" font-family="Arial" font-size="10.00" fill="#ffffff">format:534:write_array</text>
<text text-anchor="middle" x="462.3633" y="-410.4736" font-family="Arial" font-size="10.00" fill="#ffffff">4.92%</text>
<text text-anchor="middle" x="462.3633" y="-398.9746" font-family="Arial" font-size="10.00" fill="#ffffff">(0.10%)</text>
<text text-anchor="middle" x="462.3633" y="-387.4756" font-family="Arial" font-size="10.00" fill="#ffffff">2001×</text>
</a>
</g>
</g>
<!-- 42&#45;&gt;114 -->
<g id="edge3" class="edge">
<title>42&#45;&gt;114</title>
<path fill="none" stroke="#0d2279" stroke-width=".5" d="M562.2449,-474.7472C544.5244,-462.7234 523.6587,-448.5653 505.5935,-436.3076"/>
<polygon fill="#0d2279" stroke="#0d2279" stroke-width=".5" points="506.0716,-435.1516 502.4875,-434.2001 504.6959,-437.179 506.0716,-435.1516"/>
<text text-anchor="middle" x="563.5405" y="-457.9707" font-family="Arial" font-size="10.00" fill="#0d2279">4.92%</text>
<text text-anchor="middle" x="563.5405" y="-446.4717" font-family="Arial" font-size="10.00" fill="#0d2279">2001×</text>
</g>
<!-- 126 -->
<g id="node6" class="node">
<title>126</title>
<g id="a_node6"><a xlink:title="~">
<polygon fill="#0d1274" stroke="#0d1274" points="675.1779,-433.9707 529.5487,-433.9707 529.5487,-379.9785 675.1779,-379.9785 675.1779,-433.9707"/>
<text text-anchor="middle" x="602.3633" y="-421.9727" font-family="Arial" font-size="10.00" fill="#ffffff">~:0:&lt;built&#45;in method io.open&gt;</text>
<text text-anchor="middle" x="602.3633" y="-410.4736" font-family="Arial" font-size="10.00" fill="#ffffff">1.30%</text>
<text text-anchor="middle" x="602.3633" y="-398.9746" font-family="Arial" font-size="10.00" fill="#ffffff">(1.30%)</text>
<text text-anchor="middle" x="602.3633" y="-387.4756" font-family="Arial" font-size="10.00" fill="#ffffff">2002×</text>
</a>
</g>
</g>
<!-- 42&#45;&gt;126 -->
<g id="edge4" class="edge">
<title>42&#45;&gt;126</title>
<path fill="none" stroke="#0d1274" stroke-width=".5" d="M602.3633,-474.7472C602.3633,-463.2202 602.3633,-449.7318 602.3633,-437.8366"/>
<polygon fill="#0d1274" stroke="#0d1274" stroke-width=".5" points="603.5884,-437.7001 602.3633,-434.2001 601.1384,-437.7001 603.5884,-437.7001"/>
<text text-anchor="middle" x="616.5405" y="-457.9707" font-family="Arial" font-size="10.00" fill="#0d1274">1.30%</text>
<text text-anchor="middle" x="616.5405" y="-446.4717" font-family="Arial" font-size="10.00" fill="#0d1274">2001×</text>
</g>
<!-- 130 -->
<g id="node7" class="node">
<title>130</title>
<g id="a_node7"><a xlink:title="~">
<polygon fill="#0d1274" stroke="#0d1274" points="924.6995,-433.9707 684.0271,-433.9707 684.0271,-379.9785 924.6995,-379.9785 924.6995,-433.9707"/>
<text text-anchor="middle" x="804.3633" y="-421.9727" font-family="Arial" font-size="10.00" fill="#ffffff">~:0:&lt;method &#39;close&#39; of &#39;_io.BufferedWriter&#39; objects&gt;</text>
<text text-anchor="middle" x="804.3633" y="-410.4736" font-family="Arial" font-size="10.00" fill="#ffffff">1.33%</text>
<text text-anchor="middle" x="804.3633" y="-398.9746" font-family="Arial" font-size="10.00" fill="#ffffff">(1.33%)</text>
<text text-anchor="middle" x="804.3633" y="-387.4756" font-family="Arial" font-size="10.00" fill="#ffffff">2001×</text>
</a>
</g>
</g>
<!-- 42&#45;&gt;130 -->
<g id="edge5" class="edge">
<title>42&#45;&gt;130</title>
<path fill="none" stroke="#0d1274" stroke-width=".5" d="M644.2178,-482.2859C672.8728,-468.8104 711.3347,-450.723 743.3834,-435.6515"/>
<polygon fill="#0d1274" stroke="#0d1274" stroke-width=".5" points="744.2144,-436.6145 746.8604,-434.0164 743.1718,-434.3974 744.2144,-436.6145"/>
<text text-anchor="middle" x="742.5405" y="-457.9707" font-family="Arial" font-size="10.00" fill="#0d1274">1.33%</text>
<text text-anchor="middle" x="742.5405" y="-446.4717" font-family="Arial" font-size="10.00" fill="#0d1274">2001×</text>
</g>
<!-- 114&#45;&gt;7 -->
<g id="edge24" class="edge">
<title>114&#45;&gt;7</title>
<path fill="none" stroke="#0d1b77" stroke-width=".5" d="M464.3692,-379.7531C465.2186,-368.2261 466.2126,-354.7376 467.0891,-342.8425"/>
<polygon fill="#0d1b77" stroke="#0d1b77" stroke-width=".5" points="468.3215,-342.7865 467.3571,-339.206 465.8781,-342.6064 468.3215,-342.7865"/>
<text text-anchor="middle" x="481.5405" y="-362.9766" font-family="Arial" font-size="10.00" fill="#0d1b77">3.29%</text>
<text text-anchor="middle" x="481.5405" y="-351.4775" font-family="Arial" font-size="10.00" fill="#0d1b77">2001×</text>
</g>
<!-- 165 -->
<g id="node26" class="node">
<title>165</title>
<g id="a_node26"><a xlink:title="~">
<polygon fill="#0d1375" stroke="#0d1375" points="781.21,-338.9766 557.5165,-338.9766 557.5165,-284.9844 781.21,-284.9844 781.21,-338.9766"/>
<text text-anchor="middle" x="669.3633" y="-326.9785" font-family="Arial" font-size="10.00" fill="#ffffff">~:0:&lt;method &#39;tofile&#39; of &#39;numpy.ndarray&#39; objects&gt;</text>
<text text-anchor="middle" x="669.3633" y="-315.4795" font-family="Arial" font-size="10.00" fill="#ffffff">1.40%</text>
<text text-anchor="middle" x="669.3633" y="-303.9805" font-family="Arial" font-size="10.00" fill="#ffffff">(1.40%)</text>
<text text-anchor="middle" x="669.3633" y="-292.4814" font-family="Arial" font-size="10.00" fill="#ffffff">2001×</text>
</a>
</g>
</g>
<!-- 114&#45;&gt;165 -->
<g id="edge25" class="edge">
<title>114&#45;&gt;165</title>
<path fill="none" stroke="#0d1375" stroke-width=".5" d="M520.5752,-380.2606C547.579,-367.8684 579.7062,-353.1249 607.1843,-340.515"/>
<polygon fill="#0d1375" stroke="#0d1375" stroke-width=".5" points="607.8415,-341.5613 610.5116,-338.988 606.8196,-339.3345 607.8415,-341.5613"/>
<text text-anchor="middle" x="605.5405" y="-362.9766" font-family="Arial" font-size="10.00" fill="#0d1375">1.40%</text>
<text text-anchor="middle" x="605.5405" y="-351.4775" font-family="Arial" font-size="10.00" fill="#0d1375">2001×</text>
</g>
<!-- 49 -->
<g id="node9" class="node">
<title>49</title>
<g id="a_node9"><a xlink:title="~">
<polygon fill="#0ba557" stroke="#0ba557" points="1099.1213,-433.9707 933.6053,-433.9707 933.6053,-379.9785 1099.1213,-379.9785 1099.1213,-433.9707"/>
<text text-anchor="middle" x="1016.3633" y="-421.9727" font-family="Arial" font-size="10.00" fill="#ffffff">~:0:&lt;built&#45;in method builtins.eval&gt;</text>
<text text-anchor="middle" x="1016.3633" y="-410.4736" font-family="Arial" font-size="10.00" fill="#ffffff">37.62%</text>
<text text-anchor="middle" x="1016.3633" y="-398.9746" font-family="Arial" font-size="10.00" fill="#ffffff">(0.73%)</text>
<text text-anchor="middle" x="1016.3633" y="-387.4756" font-family="Arial" font-size="10.00" fill="#ffffff">1999×</text>
</a>
</g>
</g>
<!-- 50 -->
<g id="node10" class="node">
<title>50</title>
<g id="a_node10"><a xlink:title="/Users/lucassawade/OneDrive/VERSEM/src/tscheme.py">
<polygon fill="#8cce07" stroke="#8cce07" points="1061.2381,-528.9648 971.4885,-528.9648 971.4885,-474.9727 1061.2381,-474.9727 1061.2381,-528.9648"/>
<text text-anchor="middle" x="1016.3633" y="-516.9668" font-family="Arial" font-size="10.00" fill="#ffffff">tscheme:95:step</text>
<text text-anchor="middle" x="1016.3633" y="-505.4678" font-family="Arial" font-size="10.00" fill="#ffffff">66.75%</text>
<text text-anchor="middle" x="1016.3633" y="-493.9688" font-family="Arial" font-size="10.00" fill="#ffffff">(0.51%)</text>
<text text-anchor="middle" x="1016.3633" y="-482.4697" font-family="Arial" font-size="10.00" fill="#ffffff">1999×</text>
</a>
</g>
</g>
<!-- 50&#45;&gt;49 -->
<g id="edge7" class="edge">
<title>50&#45;&gt;49</title>
<path fill="none" stroke="#0ba557" stroke-width="1.5" d="M1016.3633,-474.7472C1016.3633,-464.0152 1016.3633,-451.5829 1016.3633,-440.3192"/>
<polygon fill="#0ba557" stroke="#0ba557" stroke-width="1.5" points="1018.4984,-440.3001 1016.3633,-434.2001 1014.2284,-440.3001 1018.4984,-440.3001"/>
<text text-anchor="middle" x="1033.3213" y="-457.9707" font-family="Arial" font-size="10.00" fill="#0ba557">37.62%</text>
<text text-anchor="middle" x="1033.3213" y="-446.4717" font-family="Arial" font-size="10.00" fill="#0ba557">1999×</text>
</g>
<!-- 179 -->
<g id="node11" class="node">
<title>179</title>
<g id="a_node11"><a xlink:title="/Users/lucassawade/OneDrive/VERSEM/src/tsolver.py">
<polygon fill="#0ba652" stroke="#0ba652" points="1227.2477,-433.9707 1107.4789,-433.9707 1107.4789,-379.9785 1227.2477,-379.9785 1227.2477,-433.9707"/>
<text text-anchor="middle" x="1167.3633" y="-421.9727" font-family="Arial" font-size="10.00" fill="#ffffff">tsolver:129:normalize_f</text>
<text text-anchor="middle" x="1167.3633" y="-410.4736" font-family="Arial" font-size="10.00" fill="#ffffff">38.48%</text>
<text text-anchor="middle" x="1167.3633" y="-398.9746" font-family="Arial" font-size="10.00" fill="#ffffff">(38.20%)</text>
<text text-anchor="middle" x="1167.3633" y="-387.4756" font-family="Arial" font-size="10.00" fill="#ffffff">7998×</text>
</a>
</g>
</g>
<!-- 50&#45;&gt;179 -->
<g id="edge8" class="edge">
<title>50&#45;&gt;179</title>
<path fill="none" stroke="#0c9884" stroke-width="1.14" d="M1059.6338,-474.7472C1078.3531,-462.9709 1100.3265,-449.1475 1119.529,-437.0671"/>
<polygon fill="#0c9884" stroke="#0c9884" stroke-width="1.14" points="1120.8493,-438.4281 1124.3477,-434.0357 1118.8738,-435.2879 1120.8493,-438.4281"/>
<text text-anchor="middle" x="1127.3213" y="-457.9707" font-family="Arial" font-size="10.00" fill="#0c9884">28.60%</text>
<text text-anchor="middle" x="1127.3213" y="-446.4717" font-family="Arial" font-size="10.00" fill="#0c9884">5997×</text>
</g>
<!-- 175 -->
<g id="node20" class="node">
<title>175</title>
<g id="a_node20"><a xlink:title="~">
<polygon fill="#0d1f78" stroke="#0d1f78" points="381.0383,-338.9766 143.6883,-338.9766 143.6883,-284.9844 381.0383,-284.9844 381.0383,-338.9766"/>
<text text-anchor="middle" x="262.3633" y="-326.9785" font-family="Arial" font-size="10.00" fill="#ffffff">~:0:&lt;built&#45;in method numpy.core.multiarray.zeros&gt;</text>
<text text-anchor="middle" x="262.3633" y="-315.4795" font-family="Arial" font-size="10.00" fill="#ffffff">4.16%</text>
<text text-anchor="middle" x="262.3633" y="-303.9805" font-family="Arial" font-size="10.00" fill="#ffffff">(4.17%)</text>
<text text-anchor="middle" x="262.3633" y="-292.4814" font-family="Arial" font-size="10.00" fill="#ffffff">13841×</text>
</a>
</g>
</g>
<!-- 179&#45;&gt;175 -->
<g id="edge28" class="edge">
<title>179&#45;&gt;175</title>
<path fill="none" stroke="#0d0e73" stroke-width=".5" d="M1107.6095,-381.0586C1106.1881,-380.6721 1104.7714,-380.3103 1103.3633,-379.9766 894.4582,-330.4583 835.7646,-359.1811 621.3633,-347.9785 516.5411,-342.5015 489.4818,-352.283 385.3633,-338.9785 385.1871,-338.956 385.0108,-338.9334 384.8343,-338.9106"/>
<polygon fill="#0d0e73" stroke="#0d0e73" stroke-width=".5" points="384.7439,-337.6627 381.1126,-338.4139 384.4198,-340.0912 384.7439,-337.6627"/>
<text text-anchor="middle" x="1070.5405" y="-362.9766" font-family="Arial" font-size="10.00" fill="#0d0e73">0.31%</text>
<text text-anchor="middle" x="1070.5405" y="-351.4775" font-family="Arial" font-size="10.00" fill="#0d0e73">7998×</text>
</g>
<!-- 82 -->
<g id="node12" class="node">
<title>82</title>
<g id="a_node12"><a xlink:title="/Users/lucassawade/OneDrive/VERSEM/versem.py">
<polygon fill="#ff0000" stroke="#ff0000" points="388.0011,-718.9531 300.7255,-718.9531 300.7255,-664.9609 388.0011,-664.9609 388.0011,-718.9531"/>
<text text-anchor="middle" x="344.3633" y="-706.9551" font-family="Arial" font-size="10.00" fill="#ffffff">versem:16:main</text>
<text text-anchor="middle" x="344.3633" y="-695.4561" font-family="Arial" font-size="10.00" fill="#ffffff">100.00%</text>
<text text-anchor="middle" x="344.3633" y="-683.957" font-family="Arial" font-size="10.00" fill="#ffffff">(0.13%)</text>
<text text-anchor="middle" x="344.3633" y="-672.458" font-family="Arial" font-size="10.00" fill="#ffffff">1×</text>
</a>
</g>
</g>
<!-- 98 -->
<g id="node13" class="node">
<title>98</title>
<g id="a_node13"><a xlink:title="/Users/lucassawade/OneDrive/VERSEM/src/el_stiffness_matrix.py">
<polygon fill="#0c768d" stroke="#0c768d" points="190.59,-623.959 .1365,-623.959 .1365,-569.9668 190.59,-569.9668 190.59,-623.959"/>
<text text-anchor="middle" x="95.3633" y="-611.9609" font-family="Arial" font-size="10.00" fill="#ffffff">el_stiffness_matrix:61:glob_el_stiff_mat</text>
<text text-anchor="middle" x="95.3633" y="-600.4619" font-family="Arial" font-size="10.00" fill="#ffffff">20.51%</text>
<text text-anchor="middle" x="95.3633" y="-588.9629" font-family="Arial" font-size="10.00" fill="#ffffff">(7.38%)</text>
<text text-anchor="middle" x="95.3633" y="-577.4639" font-family="Arial" font-size="10.00" fill="#ffffff">2×</text>
</a>
</g>
</g>
<!-- 82&#45;&gt;98 -->
<g id="edge9" class="edge">
<title>82&#45;&gt;98</title>
<path fill="none" stroke="#0c768d" stroke-width=".82" d="M300.7059,-675.3016C264.8369,-661.6175 213.1954,-641.9161 170.6751,-625.6946"/>
<polygon fill="#0c768d" stroke="#0c768d" stroke-width=".82" points="171.0934,-624.1684 166.3275,-624.0359 169.9705,-627.1115 171.0934,-624.1684"/>
<text text-anchor="middle" x="267.3213" y="-647.959" font-family="Arial" font-size="10.00" fill="#0c768d">20.51%</text>
<text text-anchor="middle" x="267.3213" y="-636.46" font-family="Arial" font-size="10.00" fill="#0c768d">2×</text>
</g>
<!-- 100 -->
<g id="node14" class="node">
<title>100</title>
<g id="a_node14"><a xlink:title="/Users/lucassawade/OneDrive/VERSEM/src/el_mass_matrix.py">
<polygon fill="#0d1274" stroke="#0d1274" points="386.4984,-623.959 200.2282,-623.959 200.2282,-569.9668 386.4984,-569.9668 386.4984,-623.959"/>
<text text-anchor="middle" x="293.3633" y="-611.9609" font-family="Arial" font-size="10.00" fill="#ffffff">el_mass_matrix:37:glob_el_mass_mat</text>
<text text-anchor="middle" x="293.3633" y="-600.4619" font-family="Arial" font-size="10.00" fill="#ffffff">1.29%</text>
<text text-anchor="middle" x="293.3633" y="-588.9629" font-family="Arial" font-size="10.00" fill="#ffffff">(0.76%)</text>
<text text-anchor="middle" x="293.3633" y="-577.4639" font-family="Arial" font-size="10.00" fill="#ffffff">1×</text>
</a>
</g>
</g>
<!-- 82&#45;&gt;100 -->
<g id="edge10" class="edge">
<title>82&#45;&gt;100</title>
<path fill="none" stroke="#0d1274" stroke-width=".5" d="M329.7487,-664.7355C323.5068,-653.1091 316.1936,-639.4874 309.7674,-627.5176"/>
<polygon fill="#0d1274" stroke="#0d1274" stroke-width=".5" points="310.7149,-626.6926 307.98,-624.1884 308.5563,-627.8515 310.7149,-626.6926"/>
<text text-anchor="middle" x="339.5405" y="-647.959" font-family="Arial" font-size="10.00" fill="#0d1274">1.29%</text>
<text text-anchor="middle" x="339.5405" y="-636.46" font-family="Arial" font-size="10.00" fill="#0d1274">1×</text>
</g>
<!-- 103 -->
<g id="node15" class="node">
<title>103</title>
<g id="a_node15"><a xlink:title="/Users/lucassawade/OneDrive/VERSEM/src/force.py">
<polygon fill="#0d1776" stroke="#0d1776" points="519.2052,-623.959 395.5214,-623.959 395.5214,-569.9668 519.2052,-569.9668 519.2052,-623.959"/>
<text text-anchor="middle" x="457.3633" y="-611.9609" font-family="Arial" font-size="10.00" fill="#ffffff">force:41:glob_force_mat</text>
<text text-anchor="middle" x="457.3633" y="-600.4619" font-family="Arial" font-size="10.00" fill="#ffffff">2.51%</text>
<text text-anchor="middle" x="457.3633" y="-588.9629" font-family="Arial" font-size="10.00" fill="#ffffff">(1.51%)</text>
<text text-anchor="middle" x="457.3633" y="-577.4639" font-family="Arial" font-size="10.00" fill="#ffffff">2×</text>
</a>
</g>
</g>
<!-- 82&#45;&gt;103 -->
<g id="edge11" class="edge">
<title>82&#45;&gt;103</title>
<path fill="none" stroke="#0d1776" stroke-width=".5" d="M376.7445,-664.7355C390.9293,-652.811 407.611,-638.7875 422.1083,-626.6002"/>
<polygon fill="#0d1776" stroke="#0d1776" stroke-width=".5" points="423.0864,-627.3783 424.9773,-624.1884 421.5099,-625.5029 423.0864,-627.3783"/>
<text text-anchor="middle" x="428.5405" y="-647.959" font-family="Arial" font-size="10.00" fill="#0d1776">2.51%</text>
<text text-anchor="middle" x="428.5405" y="-636.46" font-family="Arial" font-size="10.00" fill="#0d1776">2×</text>
</g>
<!-- 117 -->
<g id="node16" class="node">
<title>117</title>
<g id="a_node16"><a xlink:title="/Users/lucassawade/OneDrive/VERSEM/src/tscheme.py">
<polygon fill="#d8d906" stroke="#d8d906" points="655.3517,-623.959 549.3748,-623.959 549.3748,-569.9668 655.3517,-569.9668 655.3517,-623.959"/>
<text text-anchor="middle" x="602.3633" y="-611.9609" font-family="Arial" font-size="10.00" fill="#ffffff">tscheme:32:process</text>
<text text-anchor="middle" x="602.3633" y="-600.4619" font-family="Arial" font-size="10.00" fill="#ffffff">74.82%</text>
<text text-anchor="middle" x="602.3633" y="-588.9629" font-family="Arial" font-size="10.00" fill="#ffffff">(0.28%)</text>
<text text-anchor="middle" x="602.3633" y="-577.4639" font-family="Arial" font-size="10.00" fill="#ffffff">1×</text>
</a>
</g>
</g>
<!-- 82&#45;&gt;117 -->
<g id="edge12" class="edge">
<title>82&#45;&gt;117</title>
<path fill="none" stroke="#d8d906" stroke-width="2.99" d="M388.2134,-676.2984C405.699,-670.0214 426,-662.6923 444.3633,-655.959 476.2648,-644.2616 511.7104,-631.0465 540.9318,-620.0932"/>
<polygon fill="#d8d906" stroke="#d8d906" stroke-width="2.99" points="542.3176,-622.8257 549.3941,-616.9193 540.1788,-617.1236 542.3176,-622.8257"/>
<text text-anchor="middle" x="522.3213" y="-647.959" font-family="Arial" font-size="10.00" fill="#d8d906">74.82%</text>
<text text-anchor="middle" x="522.3213" y="-636.46" font-family="Arial" font-size="10.00" fill="#d8d906">1×</text>
</g>
<!-- 96 -->
<g id="node17" class="node">
<title>96</title>
<g id="a_node17"><a xlink:title="/Users/lucassawade/OneDrive/VERSEM/src/el_stiffness_matrix.py">
<polygon fill="#0d377f" stroke="#0d377f" points="206.8299,-528.9648 67.8967,-528.9648 67.8967,-474.9727 206.8299,-474.9727 206.8299,-528.9648"/>
<text text-anchor="middle" x="137.3633" y="-516.9668" font-family="Arial" font-size="10.00" fill="#ffffff">el_stiffness_matrix:8:el_stiff</text>
<text text-anchor="middle" x="137.3633" y="-505.4678" font-family="Arial" font-size="10.00" fill="#ffffff">9.32%</text>
<text text-anchor="middle" x="137.3633" y="-493.9688" font-family="Arial" font-size="10.00" fill="#ffffff">(8.73%)</text>
<text text-anchor="middle" x="137.3633" y="-482.4697" font-family="Arial" font-size="10.00" fill="#ffffff">400×</text>
</a>
</g>
</g>
<!-- 98&#45;&gt;96 -->
<g id="edge15" class="edge">
<title>98&#45;&gt;96</title>
<path fill="none" stroke="#0d377f" stroke-width=".5" d="M107.3988,-569.7414C112.5392,-558.115 118.5618,-544.4932 123.854,-532.5235"/>
<polygon fill="#0d377f" stroke="#0d377f" stroke-width=".5" points="125.031,-532.8907 125.326,-529.1942 122.7903,-531.8999 125.031,-532.8907"/>
<text text-anchor="middle" x="135.5405" y="-552.9648" font-family="Arial" font-size="10.00" fill="#0d377f">9.32%</text>
<text text-anchor="middle" x="135.5405" y="-541.4658" font-family="Arial" font-size="10.00" fill="#0d377f">400×</text>
</g>
<!-- 97 -->
<g id="node19" class="node">
<title>97</title>
<g id="a_node19"><a xlink:title="/Users/lucassawade/OneDrive/VERSEM/src/loc2glob.py">
<polygon fill="#0d2279" stroke="#0d2279" points="348.05,-528.9648 230.6766,-528.9648 230.6766,-474.9727 348.05,-474.9727 348.05,-528.9648"/>
<text text-anchor="middle" x="289.3633" y="-516.9668" font-family="Arial" font-size="10.00" fill="#ffffff">loc2glob:7:local2global</text>
<text text-anchor="middle" x="289.3633" y="-505.4678" font-family="Arial" font-size="10.00" fill="#ffffff">4.91%</text>
<text text-anchor="middle" x="289.3633" y="-493.9688" font-family="Arial" font-size="10.00" fill="#ffffff">(1.11%)</text>
<text text-anchor="middle" x="289.3633" y="-482.4697" font-family="Arial" font-size="10.00" fill="#ffffff">2600×</text>
</a>
</g>
</g>
<!-- 98&#45;&gt;97 -->
<g id="edge16" class="edge">
<title>98&#45;&gt;97</title>
<path fill="none" stroke="#0d1d78" stroke-width=".5" d="M150.6963,-569.8685C175.6697,-557.64 205.1926,-543.1838 230.5652,-530.7599"/>
<polygon fill="#0d1d78" stroke="#0d1d78" stroke-width=".5" points="231.3521,-531.7386 233.9568,-529.0991 230.2747,-529.5382 231.3521,-531.7386"/>
<text text-anchor="middle" x="230.5405" y="-552.9648" font-family="Arial" font-size="10.00" fill="#0d1d78">3.79%</text>
<text text-anchor="middle" x="230.5405" y="-541.4658" font-family="Arial" font-size="10.00" fill="#0d1d78">2000×</text>
</g>
<!-- 100&#45;&gt;97 -->
<g id="edge17" class="edge">
<title>100&#45;&gt;97</title>
<path fill="none" stroke="#0d0e73" stroke-width=".5" d="M292.217,-569.7414C291.7317,-558.2143 291.1637,-544.7259 290.6628,-532.8308"/>
<polygon fill="#0d0e73" stroke="#0d0e73" stroke-width=".5" points="291.8809,-532.6396 290.5097,-529.1942 289.4331,-532.7427 291.8809,-532.6396"/>
<text text-anchor="middle" x="306.5405" y="-552.9648" font-family="Arial" font-size="10.00" fill="#0d0e73">0.39%</text>
<text text-anchor="middle" x="306.5405" y="-541.4658" font-family="Arial" font-size="10.00" fill="#0d0e73">200×</text>
</g>
<!-- 196 -->
<g id="node18" class="node">
<title>196</title>
<g id="a_node18"><a xlink:title="/Users/lucassawade/anaconda3/lib/python3.7/site&#45;packages/numpy/linalg/linalg.py">
<polygon fill="#0d0f73" stroke="#0d0f73" points="234.917,-433.9707 153.8096,-433.9707 153.8096,-379.9785 234.917,-379.9785 234.917,-433.9707"/>
<text text-anchor="middle" x="194.3633" y="-421.9727" font-family="Arial" font-size="10.00" fill="#ffffff">linalg:1970:det</text>
<text text-anchor="middle" x="194.3633" y="-410.4736" font-family="Arial" font-size="10.00" fill="#ffffff">0.54%</text>
<text text-anchor="middle" x="194.3633" y="-398.9746" font-family="Arial" font-size="10.00" fill="#ffffff">(0.29%)</text>
<text text-anchor="middle" x="194.3633" y="-387.4756" font-family="Arial" font-size="10.00" fill="#ffffff">9000×</text>
</a>
</g>
</g>
<!-- 103&#45;&gt;196 -->
<g id="edge19" class="edge">
<title>103&#45;&gt;196</title>
<path fill="none" stroke="#0d0e73" stroke-width=".5" d="M444.1785,-569.9384C438.471,-559.4634 431.2809,-547.6793 423.3633,-537.9668 396.708,-505.2689 387.9689,-497.5957 352.3633,-474.9707 332.6283,-462.4304 277.9156,-439.7888 238.4023,-424.0964"/>
<polygon fill="#0d0e73" stroke="#0d0e73" stroke-width=".5" points="238.8121,-422.9412 235.107,-422.7898 237.909,-425.2187 238.8121,-422.9412"/>
<text text-anchor="middle" x="430.5405" y="-505.4678" font-family="Arial" font-size="10.00" fill="#0d0e73">0.20%</text>
<text text-anchor="middle" x="430.5405" y="-493.9688" font-family="Arial" font-size="10.00" fill="#0d0e73">3600×</text>
</g>
<!-- 103&#45;&gt;97 -->
<g id="edge18" class="edge">
<title>103&#45;&gt;97</title>
<path fill="none" stroke="#0d1074" stroke-width=".5" d="M409.2212,-569.7414C387.6885,-557.5659 362.2856,-543.2021 340.4211,-530.8389"/>
<polygon fill="#0d1074" stroke="#0d1074" stroke-width=".5" points="340.8714,-529.6863 337.2217,-529.0299 339.6654,-531.819 340.8714,-529.6863"/>
<text text-anchor="middle" x="407.5405" y="-552.9648" font-family="Arial" font-size="10.00" fill="#0d1074">0.74%</text>
<text text-anchor="middle" x="407.5405" y="-541.4658" font-family="Arial" font-size="10.00" fill="#0d1074">400×</text>
</g>
<!-- 117&#45;&gt;42 -->
<g id="edge26" class="edge">
<title>117&#45;&gt;42</title>
<path fill="none" stroke="#0d2f7d" stroke-width=".5" d="M602.3633,-569.7414C602.3633,-558.2143 602.3633,-544.7259 602.3633,-532.8308"/>
<polygon fill="#0d2f7d" stroke="#0d2f7d" stroke-width=".5" points="603.5884,-532.6942 602.3633,-529.1942 601.1384,-532.6943 603.5884,-532.6942"/>
<text text-anchor="middle" x="616.5405" y="-552.9648" font-family="Arial" font-size="10.00" fill="#0d2f7d">7.77%</text>
<text text-anchor="middle" x="616.5405" y="-541.4658" font-family="Arial" font-size="10.00" fill="#0d2f7d">2000×</text>
</g>
<!-- 117&#45;&gt;50 -->
<g id="edge27" class="edge">
<title>117&#45;&gt;50</title>
<path fill="none" stroke="#8cce07" stroke-width="2.67" d="M655.2172,-584.8353C734.509,-566.6415 883.4167,-532.4739 963.0035,-514.2124"/>
<polygon fill="#8cce07" stroke="#8cce07" stroke-width="2.67" points="964.07,-516.9123 971.4204,-512.2811 962.7862,-511.3177 964.07,-516.9123"/>
<text text-anchor="middle" x="876.3213" y="-552.9648" font-family="Arial" font-size="10.00" fill="#8cce07">66.75%</text>
<text text-anchor="middle" x="876.3213" y="-541.4658" font-family="Arial" font-size="10.00" fill="#8cce07">1999×</text>
</g>
<!-- 96&#45;&gt;196 -->
<g id="edge13" class="edge">
<title>96&#45;&gt;196</title>
<path fill="none" stroke="#0d0e73" stroke-width=".5" d="M153.6972,-474.7472C160.7331,-463.0215 168.9868,-449.2661 176.2133,-437.2228"/>
<polygon fill="#0d0e73" stroke="#0d0e73" stroke-width=".5" points="177.2765,-437.8316 178.027,-434.2001 175.1757,-436.571 177.2765,-437.8316"/>
<text text-anchor="middle" x="187.5405" y="-457.9707" font-family="Arial" font-size="10.00" fill="#0d0e73">0.25%</text>
<text text-anchor="middle" x="187.5405" y="-446.4717" font-family="Arial" font-size="10.00" fill="#0d0e73">3600×</text>
</g>
<!-- 97&#45;&gt;175 -->
<g id="edge14" class="edge">
<title>97&#45;&gt;175</title>
<path fill="none" stroke="#0d1c77" stroke-width=".5" d="M285.4948,-474.7481C280.5426,-439.901 271.9822,-379.6653 266.7796,-343.056"/>
<polygon fill="#0d1c77" stroke="#0d1c77" stroke-width=".5" points="267.9299,-342.4435 266.2245,-339.1507 265.5043,-342.7882 267.9299,-342.4435"/>
<text text-anchor="middle" x="294.5405" y="-410.4736" font-family="Arial" font-size="10.00" fill="#0d1c77">3.68%</text>
<text text-anchor="middle" x="294.5405" y="-398.9746" font-family="Arial" font-size="10.00" fill="#0d1c77">2600×</text>
</g>
<!-- 107 -->
<g id="node21" class="node">
<title>107</title>
<g id="a_node21"><a xlink:title="/Users/lucassawade/anaconda3/lib/python3.7/site&#45;packages/scipy/interpolate/interpolate.py">
<polygon fill="#0d1274" stroke="#0d1274" points="1502.8905,-243.9824 1367.8361,-243.9824 1367.8361,-189.9902 1502.8905,-189.9902 1502.8905,-243.9824"/>
<text text-anchor="middle" x="1435.3633" y="-231.9844" font-family="Arial" font-size="10.00" fill="#ffffff">interpolate:588:_call_linear</text>
<text text-anchor="middle" x="1435.3633" y="-220.4854" font-family="Arial" font-size="10.00" fill="#ffffff">1.19%</text>
<text text-anchor="middle" x="1435.3633" y="-208.9863" font-family="Arial" font-size="10.00" fill="#ffffff">(1.02%)</text>
<text text-anchor="middle" x="1435.3633" y="-197.4873" font-family="Arial" font-size="10.00" fill="#ffffff">2004×</text>
</a>
</g>
</g>
<!-- 108 -->
<g id="node22" class="node">
<title>108</title>
<g id="a_node22"><a xlink:title="/Users/lucassawade/anaconda3/lib/python3.7/site&#45;packages/scipy/interpolate/interpolate.py">
<polygon fill="#0d1475" stroke="#0d1475" points="1499.6732,-338.9766 1371.0533,-338.9766 1371.0533,-284.9844 1499.6732,-284.9844 1499.6732,-338.9766"/>
<text text-anchor="middle" x="1435.3633" y="-326.9785" font-family="Arial" font-size="10.00" fill="#ffffff">interpolate:657:_evaluate</text>
<text text-anchor="middle" x="1435.3633" y="-315.4795" font-family="Arial" font-size="10.00" fill="#ffffff">1.66%</text>
<text text-anchor="middle" x="1435.3633" y="-303.9805" font-family="Arial" font-size="10.00" fill="#ffffff">(0.16%)</text>
<text text-anchor="middle" x="1435.3633" y="-292.4814" font-family="Arial" font-size="10.00" fill="#ffffff">2004×</text>
</a>
</g>
</g>
<!-- 108&#45;&gt;107 -->
<g id="edge20" class="edge">
<title>108&#45;&gt;107</title>
<path fill="none" stroke="#0d1274" stroke-width=".5" d="M1435.3633,-284.759C1435.3633,-273.2319 1435.3633,-259.7435 1435.3633,-247.8483"/>
<polygon fill="#0d1274" stroke="#0d1274" stroke-width=".5" points="1436.5884,-247.7118 1435.3633,-244.2118 1434.1384,-247.7118 1436.5884,-247.7118"/>
<text text-anchor="middle" x="1449.5405" y="-267.9824" font-family="Arial" font-size="10.00" fill="#0d1274">1.19%</text>
<text text-anchor="middle" x="1449.5405" y="-256.4834" font-family="Arial" font-size="10.00" fill="#0d1274">2004×</text>
</g>
<!-- 111 -->
<g id="node23" class="node">
<title>111</title>
<g id="a_node23"><a xlink:title="/Users/lucassawade/OneDrive/VERSEM/src/tsolver.py">
<polygon fill="#0ba35b" stroke="#0ba35b" points="1400.5629,-528.9648 1298.1636,-528.9648 1298.1636,-474.9727 1400.5629,-474.9727 1400.5629,-528.9648"/>
<text text-anchor="middle" x="1349.3633" y="-516.9668" font-family="Arial" font-size="10.00" fill="#ffffff">tsolver:56:newmark</text>
<text text-anchor="middle" x="1349.3633" y="-505.4678" font-family="Arial" font-size="10.00" fill="#ffffff">36.82%</text>
<text text-anchor="middle" x="1349.3633" y="-493.9688" font-family="Arial" font-size="10.00" fill="#ffffff">(1.02%)</text>
<text text-anchor="middle" x="1349.3633" y="-482.4697" font-family="Arial" font-size="10.00" fill="#ffffff">2000×</text>
</a>
</g>
</g>
<!-- 111&#45;&gt;179 -->
<g id="edge21" class="edge">
<title>111&#45;&gt;179</title>
<path fill="none" stroke="#0d3a7f" stroke-width=".5" d="M1297.6962,-475.0013C1274.1613,-462.7174 1246.2801,-448.1649 1222.3571,-435.6784"/>
<polygon fill="#0d3a7f" stroke="#0d3a7f" stroke-width=".5" points="1222.8292,-434.543 1219.1595,-434.0095 1221.6955,-436.715 1222.8292,-434.543"/>
<text text-anchor="middle" x="1294.5405" y="-457.9707" font-family="Arial" font-size="10.00" fill="#0d3a7f">9.88%</text>
<text text-anchor="middle" x="1294.5405" y="-446.4717" font-family="Arial" font-size="10.00" fill="#0d3a7f">2000×</text>
</g>
<!-- 186 -->
<g id="node24" class="node">
<title>186</title>
<g id="a_node24"><a xlink:title="~">
<polygon fill="#0c8991" stroke="#0c8991" points="1462.9864,-433.9707 1235.7402,-433.9707 1235.7402,-379.9785 1462.9864,-379.9785 1462.9864,-433.9707"/>
<text text-anchor="middle" x="1349.3633" y="-421.9727" font-family="Arial" font-size="10.00" fill="#ffffff">~:0:&lt;built&#45;in method numpy.core.multiarray.dot&gt;</text>
<text text-anchor="middle" x="1349.3633" y="-410.4736" font-family="Arial" font-size="10.00" fill="#ffffff">23.36%</text>
<text text-anchor="middle" x="1349.3633" y="-398.9746" font-family="Arial" font-size="10.00" fill="#ffffff">(23.38%)</text>
<text text-anchor="middle" x="1349.3633" y="-387.4756" font-family="Arial" font-size="10.00" fill="#ffffff">2002×</text>
</a>
</g>
</g>
<!-- 111&#45;&gt;186 -->
<g id="edge22" class="edge">
<title>111&#45;&gt;186</title>
<path fill="none" stroke="#0c8891" stroke-width=".93" d="M1349.3633,-474.7472C1349.3633,-463.6177 1349.3633,-450.6597 1349.3633,-439.0727"/>
<polygon fill="#0c8891" stroke="#0c8891" stroke-width=".93" points="1351.0434,-439.0001 1349.3633,-434.2001 1347.6834,-439.0001 1351.0434,-439.0001"/>
<text text-anchor="middle" x="1366.3213" y="-457.9707" font-family="Arial" font-size="10.00" fill="#0c8891">23.35%</text>
<text text-anchor="middle" x="1366.3213" y="-446.4717" font-family="Arial" font-size="10.00" fill="#0c8891">2000×</text>
</g>
<!-- 240 -->
<g id="node25" class="node">
<title>240</title>
<g id="a_node25"><a xlink:title="/Users/lucassawade/anaconda3/lib/python3.7/site&#45;packages/scipy/interpolate/polyint.py">
<polygon fill="#0d1676" stroke="#0d1676" points="1570.7003,-433.9707 1472.0262,-433.9707 1472.0262,-379.9785 1570.7003,-379.9785 1570.7003,-433.9707"/>
<text text-anchor="middle" x="1521.3633" y="-421.9727" font-family="Arial" font-size="10.00" fill="#ffffff">polyint:62:__call__</text>
<text text-anchor="middle" x="1521.3633" y="-410.4736" font-family="Arial" font-size="10.00" fill="#ffffff">2.29%</text>
<text text-anchor="middle" x="1521.3633" y="-398.9746" font-family="Arial" font-size="10.00" fill="#ffffff">(0.04%)</text>
<text text-anchor="middle" x="1521.3633" y="-387.4756" font-family="Arial" font-size="10.00" fill="#ffffff">2004×</text>
</a>
</g>
</g>
<!-- 111&#45;&gt;240 -->
<g id="edge23" class="edge">
<title>111&#45;&gt;240</title>
<path fill="none" stroke="#0d1676" stroke-width=".5" d="M1398.6516,-474.7472C1420.697,-462.5717 1446.7047,-448.2079 1469.0898,-435.8448"/>
<polygon fill="#0d1676" stroke="#0d1676" stroke-width=".5" points="1469.8938,-436.8002 1472.3654,-434.0357 1468.7093,-434.6556 1469.8938,-436.8002"/>
<text text-anchor="middle" x="1470.5405" y="-457.9707" font-family="Arial" font-size="10.00" fill="#0d1676">2.28%</text>
<text text-anchor="middle" x="1470.5405" y="-446.4717" font-family="Arial" font-size="10.00" fill="#0d1676">2000×</text>
</g>
<!-- 240&#45;&gt;108 -->
<g id="edge29" class="edge">
<title>240&#45;&gt;108</title>
<path fill="none" stroke="#0d1475" stroke-width=".5" d="M1496.7191,-379.7531C1486.0136,-367.928 1473.4393,-354.0386 1462.4707,-341.9228"/>
<polygon fill="#0d1475" stroke="#0d1475" stroke-width=".5" points="1463.2682,-340.9785 1460.011,-339.206 1461.4519,-342.6228 1463.2682,-340.9785"/>
<text text-anchor="middle" x="1503.5405" y="-362.9766" font-family="Arial" font-size="10.00" fill="#0d1475">1.66%</text>
<text text-anchor="middle" x="1503.5405" y="-351.4775" font-family="Arial" font-size="10.00" fill="#0d1475">2004×</text>
</g>
<!-- 158 -->
<g id="node27" class="node">
<title>158</title>
<g id="a_node27"><a xlink:title="/Users/lucassawade/anaconda3/lib/python3.7/site&#45;packages/scipy/interpolate/polyint.py">
<polygon fill="#0d0f73" stroke="#0d0f73" points="1620.5402,-338.9766 1508.1864,-338.9766 1508.1864,-284.9844 1620.5402,-284.9844 1620.5402,-338.9766"/>
<text text-anchor="middle" x="1564.3633" y="-326.9785" font-family="Arial" font-size="10.00" fill="#ffffff">polyint:88:_prepare_x</text>
<text text-anchor="middle" x="1564.3633" y="-315.4795" font-family="Arial" font-size="10.00" fill="#ffffff">0.53%</text>
<text text-anchor="middle" x="1564.3633" y="-303.9805" font-family="Arial" font-size="10.00" fill="#ffffff">(0.04%)</text>
<text text-anchor="middle" x="1564.3633" y="-292.4814" font-family="Arial" font-size="10.00" fill="#ffffff">2004×</text>
</a>
</g>
</g>
<!-- 240&#45;&gt;158 -->
<g id="edge30" class="edge">
<title>240&#45;&gt;158</title>
<path fill="none" stroke="#0d0f73" stroke-width=".5" d="M1533.6854,-379.7531C1538.9482,-368.1267 1545.1142,-354.5049 1550.5324,-342.5352"/>
<polygon fill="#0d0f73" stroke="#0d0f73" stroke-width=".5" points="1551.712,-342.8997 1552.0394,-339.206 1549.48,-341.8893 1551.712,-342.8997"/>
<text text-anchor="middle" x="1562.5405" y="-362.9766" font-family="Arial" font-size="10.00" fill="#0d0f73">0.53%</text>
<text text-anchor="middle" x="1562.5405" y="-351.4775" font-family="Arial" font-size="10.00" fill="#0d0f73">2004×</text>
</g>
</g>
</svg>
